<?xml version="1.0" encoding="utf-8"?>
<!-- Generator: Adobe Illustrator 16.0.0, SVG Export Plug-In . SVG Version: 6.00 Build 0)  -->
<!DOCTYPE svg PUBLIC "-//W3C//DTD SVG 1.1//EN" "http://www.w3.org/Graphics/SVG/1.1/DTD/svg11.dtd">
<svg version="1.1" id="Layer_1" xmlns="http://www.w3.org/2000/svg" xmlns:xlink="http://www.w3.org/1999/xlink" x="0px" y="0px"
	 width="60.661px" height="60.662px" viewBox="0 0 60.661 60.662" enable-background="new 0 0 60.661 60.662" xml:space="preserve">
<g>
	<path fill="#F5E950" d="M30.332,60.662c16.751,0,30.331-13.579,30.331-30.33S47.083,0,30.332,0C13.58,0,0,13.581,0,30.332
		S13.58,60.662,30.332,60.662"/>
	<path fill="#202120" d="M13.807,37.277v-6.948c0-1.104,0.08-2.145,0.238-3.094c0.34-2.037,1.032-3.554,2.125-4.646
		c0.686-0.708,1.563-1.231,2.635-1.562c0.919-0.355,1.831-0.525,2.756-0.486c2.721,0.088,4.779,1.01,6.118,2.733
		c1.107,1.477,1.734,3.06,1.664,6.802v11.926c0.078,0.001,0.152,0.003,0.232,0.003c0.632,0,1.205-0.031,1.746-0.08V30.32
		l-0.002-0.203l0.002-0.11c0.002-0.987,0.028-1.741,0.088-2.376c0.164-1.885,0.595-3.005,1.707-4.444
		c1.497-1.951,4.065-2.646,5.971-2.646c2.338,0,4.156,0.654,5.409,1.95c1.354,1.352,2.106,3.382,2.302,6.209l0.006,0.06l0.014,0.172
		l0.002,0.018c0.008,0.12,0.011,0.242,0.013,0.364l0.004,0.165h0.002v0.001h-0.002l0.006,0.151c0.008,0.197,0.015,0.394,0.015,0.596
		v7.026c0.714,0.013,1.37,0.059,1.976,0.136v-7.162c0-2.704-0.431-4.966-1.275-6.729v-0.008l-0.035-0.072l-0.663-1.141
		c-0.279-0.409-0.579-0.776-0.911-1.1c-1.671-1.671-3.98-2.519-6.86-2.519c-1.755,0-3.467,0.434-4.957,1.251
		c-0.815,0.434-1.544,0.996-2.166,1.67c-0.008,0.01-0.067,0.066-0.067,0.066c-0.032,0.03-0.139,0.148-0.139,0.15l-0.008,0.008
		c-0.011,0.011-0.03,0.033-0.03,0.033c-0.052,0.054-0.267,0.332-0.267,0.332c-0.012,0.016-0.021,0.026-0.032,0.042l-0.002,0.001
		c-0.381,0.534-0.787,1.298-1.067,1.857c-0.323-0.684-0.772-1.441-1.492-2.228c-1.741-1.929-4.464-3.08-7.283-3.08
		c-0.955,0-1.882,0.104-2.774,0.315c-0.004,0-0.008,0.002-0.011,0.003c-0.004,0.001-0.006,0.001-0.011,0.002
		c-0.009,0.002-0.015,0.006-0.025,0.009c-1.616,0.392-2.976,1.126-4.037,2.187c-0.333,0.326-0.634,0.693-0.913,1.103l-0.662,1.14
		l-0.037,0.073v0.007c-0.844,1.764-1.273,4.026-1.273,6.73v6.934c0.277-0.011,0.562-0.018,0.857-0.018
		C13.084,37.245,13.45,37.257,13.807,37.277"/>
</g>
</svg>
